<svg id="icons" enable-background="new 0 0 64 64" height="512" viewBox="0 0 64 64" width="512" xmlns="http://www.w3.org/2000/svg"><path d="m15.5 1v52h-2c-2.76 0-5 2.24-5 5v-52c0-2.76 2.24-5 5-5z" fill="#5c9eff"/><path d="m55.5 53v10h-4v-5-5z" fill="#5c9eff"/><path d="m51.5 58v5h-38c-2.76 0-5-2.24-5-5s2.24-5 5-5h2 36z" fill="#fff"/><path d="m15.5 1v52h36 4v-52z" fill="#94c1ff"/><path d="m27.5 29h16v3h-16z" fill="#d7e9ff"/><path d="m40.7 12h2.8c2.76 0 5 2.24 5 5s-2.24 5-5 5v7h-16v-7c-2.76 0-5-2.24-5-5s2.24-5 5-5h2.81c1.03-1.79 2.971-3 5.19-3s4.16 1.21 5.2 3z" fill="#fff"/><g fill="#116fff"><path d="m13.5 64c-3.309 0-6-2.691-6-6s2.691-6 6-6c.553 0 1 .447 1 1s-.447 1-1 1c-2.206 0-4 1.794-4 4s1.794 4 4 4c.553 0 1 .447 1 1s-.447 1-1 1z"/><path d="m55.5 54h-42c-.553 0-1-.447-1-1s.447-1 1-1h42c.553 0 1 .447 1 1s-.447 1-1 1z"/><path d="m55.5 64h-42c-.553 0-1-.447-1-1s.447-1 1-1h42c.553 0 1 .447 1 1s-.447 1-1 1z"/><path d="m8.5 7c-.553 0-1-.447-1-1 0-3.309 2.691-6 6-6 .553 0 1 .447 1 1s-.447 1-1 1c-2.206 0-4 1.794-4 4 0 .553-.447 1-1 1z"/><path d="m8.5 59c-.553 0-1-.447-1-1v-52c0-.553.447-1 1-1s1 .447 1 1v52c0 .553-.447 1-1 1z"/><path d="m55.5 2h-42c-.553 0-1-.447-1-1s.447-1 1-1h42c.553 0 1 .447 1 1s-.447 1-1 1z"/><path d="m55.5 54c-.553 0-1-.447-1-1v-52c0-.553.447-1 1-1s1 .447 1 1v52c0 .553-.447 1-1 1z"/><path d="m55.5 64c-.553 0-1-.447-1-1v-10c0-.553.447-1 1-1s1 .447 1 1v10c0 .553-.447 1-1 1z"/><path d="m15.5 54c-.553 0-1-.447-1-1v-52c0-.553.447-1 1-1s1 .447 1 1v52c0 .553-.447 1-1 1z"/><path d="m51.5 59.002h-38c-.553 0-1-.447-1-1s.447-1 1-1h38c.553 0 1 .447 1 1s-.447 1-1 1z"/><path d="m51.5 64c-.553 0-1-.447-1-1v-10c0-.553.447-1 1-1s1 .447 1 1v10c0 .553-.447 1-1 1z"/><path d="m27.503 22.999c-3.309 0-6-2.691-6-6s2.691-6 6-6c.553 0 1 .447 1 1s-.447 1-1 1c-2.206 0-4 1.794-4 4s1.794 4 4 4c.553 0 1 .447 1 1s-.447 1-1 1z"/><path d="m41.502 15.999c-.553 0-1-.447-1-1 0-2.757-2.243-5-5-5s-5 2.243-5 5c0 .553-.447 1-1 1s-1-.447-1-1c0-3.859 3.141-7 7-7s7 3.141 7 7c0 .553-.447 1-1 1z"/><path d="m43.501 22.999c-.553 0-1-.447-1-1s.447-1 1-1c2.206 0 4-1.794 4-4s-1.794-4-4-4c-.553 0-1-.447-1-1s.447-1 1-1c3.309 0 6 2.691 6 6s-2.691 6-6 6z"/><path d="m30.307 12.999h-2.805c-.553 0-1-.447-1-1s.447-1 1-1h2.805c.553 0 1 .447 1 1s-.448 1-1 1z"/><path d="m43.501 12.999h-2.804c-.553 0-1-.447-1-1s.447-1 1-1h2.804c.553 0 1 .447 1 1s-.447 1-1 1z"/><path d="m27.502 32.998c-.553 0-1-.447-1-1v-10.001c0-.553.447-1 1-1s1 .447 1 1v10.001c0 .553-.447 1-1 1z"/><path d="m43.503 32.998h-16.001c-.553 0-1-.447-1-1s.447-1 1-1h16.001c.553 0 1 .447 1 1s-.447 1-1 1z"/><path d="m43.503 30h-16.001c-.553 0-1-.447-1-1s.447-1 1-1h16.001c.553 0 1 .447 1 1s-.447 1-1 1z"/><path d="m43.503 32.998c-.553 0-1-.447-1-1v-10.001c0-.553.447-1 1-1s1 .447 1 1v10.001c0 .553-.447 1-1 1z"/><path d="m46.499 38.999h-21.994c-.553 0-1-.447-1-1s.447-1 1-1h21.994c.553 0 1 .447 1 1s-.447 1-1 1z"/><path d="m46.499 41.999h-21.994c-.553 0-1-.447-1-1s.447-1 1-1h21.994c.553 0 1 .447 1 1s-.447 1-1 1z"/><path d="m41.5 45.025h-11.996c-.553 0-1-.447-1-1s.447-1 1-1h11.996c.553 0 1 .447 1 1s-.447 1-1 1z"/></g></svg>